<mxfile host="app.diagrams.net" modified="2022-04-17T10:43:42.985Z" agent="5.0 (X11; Linux x86_64) AppleWebKit/537.36 (KHTML, like Gecko) Chrome/99.0.4844.82 Safari/537.36" etag="NNycpmKLhhHc7WKsvN-3" version="17.4.5" type="github" pages="2">
  <diagram name="Page-1" id="e7e014a7-5840-1c2e-5031-d8a46d1fe8dd">
    <mxGraphModel dx="2896" dy="1018" grid="0" gridSize="10" guides="1" tooltips="1" connect="1" arrows="1" fold="1" page="1" pageScale="1" pageWidth="1169" pageHeight="827" math="0" shadow="0">
      <root>
        <mxCell id="0" />
        <mxCell id="1" parent="0" />
        <mxCell id="2" value="买家" style="swimlane;whiteSpace=wrap;rounded=0;" parent="1" vertex="1">
          <mxGeometry x="-790" y="110" width="280" height="953" as="geometry" />
        </mxCell>
        <mxCell id="6" value="" style="edgeStyle=elbowEdgeStyle;elbow=horizontal;verticalAlign=bottom;endArrow=open;endSize=8;endFill=1;rounded=0;exitX=0.476;exitY=0.903;exitDx=0;exitDy=0;exitPerimeter=0;" parent="2" source="GOtscX7IOrPYoJZxczDV-10" target="7" edge="1">
          <mxGeometry x="100" y="40" as="geometry">
            <mxPoint x="115" y="110" as="targetPoint" />
            <mxPoint x="115" y="70" as="sourcePoint" />
          </mxGeometry>
        </mxCell>
        <mxCell id="7" value="注册" style="rounded=0;" parent="2" vertex="1">
          <mxGeometry x="60" y="102" width="110" height="50" as="geometry" />
        </mxCell>
        <mxCell id="AHmGALw17N1qqHDIqSAV-55" style="edgeStyle=orthogonalEdgeStyle;rounded=0;orthogonalLoop=1;jettySize=auto;html=1;entryX=0.5;entryY=0;entryDx=0;entryDy=0;" parent="2" source="8" target="AHmGALw17N1qqHDIqSAV-53" edge="1">
          <mxGeometry relative="1" as="geometry">
            <mxPoint x="105.5" y="292" as="targetPoint" />
          </mxGeometry>
        </mxCell>
        <mxCell id="8" value="登录" style="rounded=0;" parent="2" vertex="1">
          <mxGeometry x="60" y="182" width="110" height="50" as="geometry" />
        </mxCell>
        <mxCell id="9" value="" style="endArrow=open;endFill=1;rounded=0;" parent="2" source="7" target="8" edge="1">
          <mxGeometry relative="1" as="geometry" />
        </mxCell>
        <mxCell id="10" value="查找" style="rounded=0;" parent="2" vertex="1">
          <mxGeometry x="60" y="410" width="110" height="50" as="geometry" />
        </mxCell>
        <mxCell id="AHmGALw17N1qqHDIqSAV-53" value="是否浏览" style="rhombus;whiteSpace=wrap;html=1;rounded=0;" parent="2" vertex="1">
          <mxGeometry x="75" y="285" width="80" height="80" as="geometry" />
        </mxCell>
        <mxCell id="AHmGALw17N1qqHDIqSAV-54" value="" style="edgeStyle=orthogonalEdgeStyle;rounded=0;orthogonalLoop=1;jettySize=auto;html=1;entryX=0.5;entryY=1;entryDx=0;entryDy=0;endArrow=none;" parent="2" source="10" target="AHmGALw17N1qqHDIqSAV-53" edge="1">
          <mxGeometry relative="1" as="geometry">
            <mxPoint x="115" y="447" as="sourcePoint" />
            <mxPoint x="625.5" y="142" as="targetPoint" />
            <Array as="points" />
          </mxGeometry>
        </mxCell>
        <mxCell id="AHmGALw17N1qqHDIqSAV-113" value="评价" style="whiteSpace=wrap;html=1;rounded=0;" parent="2" vertex="1">
          <mxGeometry x="40" y="590" width="120" height="60" as="geometry" />
        </mxCell>
        <mxCell id="GOtscX7IOrPYoJZxczDV-10" value="" style="ellipse;html=1;shape=startState;fillColor=#000000;strokeColor=#ff0000;rounded=0;sketch=0;" vertex="1" parent="2">
          <mxGeometry x="100" y="36" width="30" height="30" as="geometry" />
        </mxCell>
        <mxCell id="4" value="管理员" style="swimlane;whiteSpace=wrap;rounded=0;" parent="1" vertex="1">
          <mxGeometry x="95.5" y="110" width="290" height="560" as="geometry">
            <mxRectangle x="95.5" y="130" width="70" height="23" as="alternateBounds" />
          </mxGeometry>
        </mxCell>
        <mxCell id="AHmGALw17N1qqHDIqSAV-48" value="审核" style="whiteSpace=wrap;html=1;rounded=0;" parent="4" vertex="1">
          <mxGeometry x="80" y="93" width="120" height="60" as="geometry" />
        </mxCell>
        <mxCell id="AHmGALw17N1qqHDIqSAV-60" value="审核通过" style="whiteSpace=wrap;html=1;rounded=0;" parent="4" vertex="1">
          <mxGeometry x="30" y="332" width="110" height="60" as="geometry" />
        </mxCell>
        <mxCell id="AHmGALw17N1qqHDIqSAV-62" style="edgeStyle=orthogonalEdgeStyle;rounded=0;orthogonalLoop=1;jettySize=auto;html=1;exitX=0;exitY=0.5;exitDx=0;exitDy=0;entryX=0.4;entryY=-0.05;entryDx=0;entryDy=0;entryPerimeter=0;" parent="4" source="AHmGALw17N1qqHDIqSAV-61" target="AHmGALw17N1qqHDIqSAV-60" edge="1">
          <mxGeometry relative="1" as="geometry" />
        </mxCell>
        <mxCell id="AHmGALw17N1qqHDIqSAV-64" style="edgeStyle=orthogonalEdgeStyle;rounded=0;orthogonalLoop=1;jettySize=auto;html=1;exitX=1;exitY=0.5;exitDx=0;exitDy=0;entryX=0.531;entryY=-0.022;entryDx=0;entryDy=0;entryPerimeter=0;" parent="4" source="AHmGALw17N1qqHDIqSAV-61" target="AHmGALw17N1qqHDIqSAV-63" edge="1">
          <mxGeometry relative="1" as="geometry" />
        </mxCell>
        <mxCell id="AHmGALw17N1qqHDIqSAV-61" value="是否包含违规信息" style="rhombus;whiteSpace=wrap;html=1;rounded=0;" parent="4" vertex="1">
          <mxGeometry x="89.5" y="205" width="101" height="80" as="geometry" />
        </mxCell>
        <mxCell id="AHmGALw17N1qqHDIqSAV-63" value="审核失败" style="whiteSpace=wrap;html=1;rounded=0;" parent="4" vertex="1">
          <mxGeometry x="170" y="332" width="120" height="60" as="geometry" />
        </mxCell>
        <mxCell id="AHmGALw17N1qqHDIqSAV-41" value="商品" style="swimlane;whiteSpace=wrap;rounded=0;" parent="1" vertex="1">
          <mxGeometry x="-510" y="110" width="325.5" height="953" as="geometry" />
        </mxCell>
        <mxCell id="AHmGALw17N1qqHDIqSAV-51" value="商品信息（商品总类、价格、新旧程度）" style="whiteSpace=wrap;html=1;rounded=0;" parent="AHmGALw17N1qqHDIqSAV-41" vertex="1">
          <mxGeometry x="102.75" y="295" width="120" height="60" as="geometry" />
        </mxCell>
        <mxCell id="AHmGALw17N1qqHDIqSAV-81" value="协商（价格、交易地点）" style="whiteSpace=wrap;html=1;rounded=0;" parent="AHmGALw17N1qqHDIqSAV-41" vertex="1">
          <mxGeometry x="92.75" y="439" width="120" height="60" as="geometry" />
        </mxCell>
        <mxCell id="AHmGALw17N1qqHDIqSAV-107" style="edgeStyle=orthogonalEdgeStyle;rounded=0;orthogonalLoop=1;jettySize=auto;html=1;entryX=0.462;entryY=0.006;entryDx=0;entryDy=0;entryPerimeter=0;" parent="AHmGALw17N1qqHDIqSAV-41" source="AHmGALw17N1qqHDIqSAV-92" target="AHmGALw17N1qqHDIqSAV-94" edge="1">
          <mxGeometry relative="1" as="geometry">
            <Array as="points">
              <mxPoint x="72.75" y="666" />
              <mxPoint x="72.75" y="776" />
            </Array>
          </mxGeometry>
        </mxCell>
        <mxCell id="AHmGALw17N1qqHDIqSAV-108" style="edgeStyle=orthogonalEdgeStyle;rounded=0;orthogonalLoop=1;jettySize=auto;html=1;exitX=1;exitY=0.5;exitDx=0;exitDy=0;entryX=0.511;entryY=-0.05;entryDx=0;entryDy=0;entryPerimeter=0;" parent="AHmGALw17N1qqHDIqSAV-41" source="AHmGALw17N1qqHDIqSAV-92" target="AHmGALw17N1qqHDIqSAV-100" edge="1">
          <mxGeometry relative="1" as="geometry" />
        </mxCell>
        <mxCell id="AHmGALw17N1qqHDIqSAV-92" value="是否协商成功" style="rhombus;whiteSpace=wrap;html=1;rounded=0;" parent="AHmGALw17N1qqHDIqSAV-41" vertex="1">
          <mxGeometry x="112.75" y="626" width="80" height="80" as="geometry" />
        </mxCell>
        <mxCell id="AHmGALw17N1qqHDIqSAV-93" style="edgeStyle=orthogonalEdgeStyle;rounded=0;orthogonalLoop=1;jettySize=auto;html=1;entryX=0.5;entryY=0;entryDx=0;entryDy=0;exitX=0.492;exitY=1.067;exitDx=0;exitDy=0;exitPerimeter=0;" parent="AHmGALw17N1qqHDIqSAV-41" source="AHmGALw17N1qqHDIqSAV-81" target="AHmGALw17N1qqHDIqSAV-92" edge="1">
          <mxGeometry relative="1" as="geometry">
            <mxPoint x="152.75" y="586" as="sourcePoint" />
          </mxGeometry>
        </mxCell>
        <mxCell id="AHmGALw17N1qqHDIqSAV-112" style="edgeStyle=orthogonalEdgeStyle;rounded=0;orthogonalLoop=1;jettySize=auto;html=1;entryX=0.497;entryY=0.019;entryDx=0;entryDy=0;entryPerimeter=0;" parent="AHmGALw17N1qqHDIqSAV-41" source="AHmGALw17N1qqHDIqSAV-94" target="AHmGALw17N1qqHDIqSAV-110" edge="1">
          <mxGeometry relative="1" as="geometry" />
        </mxCell>
        <mxCell id="AHmGALw17N1qqHDIqSAV-94" value="等待交易" style="whiteSpace=wrap;html=1;rounded=0;" parent="AHmGALw17N1qqHDIqSAV-41" vertex="1">
          <mxGeometry x="22.75" y="776" width="120" height="60" as="geometry" />
        </mxCell>
        <mxCell id="AHmGALw17N1qqHDIqSAV-100" value="取消交易" style="whiteSpace=wrap;html=1;rounded=0;" parent="AHmGALw17N1qqHDIqSAV-41" vertex="1">
          <mxGeometry x="182.75" y="776" width="120" height="60" as="geometry" />
        </mxCell>
        <mxCell id="AHmGALw17N1qqHDIqSAV-110" value="交易成功" style="whiteSpace=wrap;html=1;rounded=0;" parent="AHmGALw17N1qqHDIqSAV-41" vertex="1">
          <mxGeometry x="22.75" y="866" width="120" height="60" as="geometry" />
        </mxCell>
        <mxCell id="AHmGALw17N1qqHDIqSAV-52" style="rounded=0;orthogonalLoop=1;jettySize=auto;html=1;entryX=0;entryY=0.5;entryDx=0;entryDy=0;startArrow=none;exitX=0.995;exitY=0.54;exitDx=0;exitDy=0;exitPerimeter=0;edgeStyle=orthogonalEdgeStyle;" parent="1" source="10" target="AHmGALw17N1qqHDIqSAV-51" edge="1">
          <mxGeometry relative="1" as="geometry" />
        </mxCell>
        <mxCell id="3" value="卖家" style="swimlane;whiteSpace=wrap;startSize=23;rounded=0;" parent="1" vertex="1">
          <mxGeometry x="-184.5" y="110" width="280" height="720" as="geometry" />
        </mxCell>
        <mxCell id="AHmGALw17N1qqHDIqSAV-50" value="登录" style="whiteSpace=wrap;html=1;rounded=0;" parent="3" vertex="1">
          <mxGeometry x="75.5" y="152" width="120" height="60" as="geometry" />
        </mxCell>
        <mxCell id="AHmGALw17N1qqHDIqSAV-49" value="注册" style="whiteSpace=wrap;html=1;rounded=0;" parent="3" vertex="1">
          <mxGeometry x="75.5" y="52" width="120" height="60" as="geometry" />
        </mxCell>
        <mxCell id="AHmGALw17N1qqHDIqSAV-57" value="发布商品" style="whiteSpace=wrap;html=1;rounded=0;" parent="3" vertex="1">
          <mxGeometry x="75.5" y="252" width="120" height="60" as="geometry" />
        </mxCell>
        <mxCell id="AHmGALw17N1qqHDIqSAV-83" style="edgeStyle=orthogonalEdgeStyle;rounded=0;orthogonalLoop=1;jettySize=auto;html=1;entryX=0;entryY=0.517;entryDx=0;entryDy=0;entryPerimeter=0;" parent="3" source="AHmGALw17N1qqHDIqSAV-70" target="AHmGALw17N1qqHDIqSAV-57" edge="1">
          <mxGeometry relative="1" as="geometry">
            <Array as="points">
              <mxPoint x="55" y="482" />
              <mxPoint x="55" y="382" />
              <mxPoint x="56" y="382" />
              <mxPoint x="56" y="283" />
            </Array>
          </mxGeometry>
        </mxCell>
        <mxCell id="AHmGALw17N1qqHDIqSAV-70" value="发布失败" style="whiteSpace=wrap;html=1;rounded=0;" parent="3" vertex="1">
          <mxGeometry x="90" y="452" width="120" height="60" as="geometry" />
        </mxCell>
        <mxCell id="AHmGALw17N1qqHDIqSAV-87" value="与买家联系" style="whiteSpace=wrap;html=1;rounded=0;" parent="3" vertex="1">
          <mxGeometry x="104.5" y="540" width="120" height="60" as="geometry" />
        </mxCell>
        <mxCell id="AHmGALw17N1qqHDIqSAV-58" style="edgeStyle=orthogonalEdgeStyle;rounded=0;orthogonalLoop=1;jettySize=auto;html=1;entryX=0;entryY=0.5;entryDx=0;entryDy=0;" parent="1" source="AHmGALw17N1qqHDIqSAV-57" target="AHmGALw17N1qqHDIqSAV-48" edge="1">
          <mxGeometry relative="1" as="geometry" />
        </mxCell>
        <mxCell id="AHmGALw17N1qqHDIqSAV-59" style="edgeStyle=orthogonalEdgeStyle;rounded=0;orthogonalLoop=1;jettySize=auto;html=1;" parent="1" source="AHmGALw17N1qqHDIqSAV-48" edge="1">
          <mxGeometry relative="1" as="geometry">
            <mxPoint x="235.5" y="332" as="targetPoint" />
          </mxGeometry>
        </mxCell>
        <mxCell id="AHmGALw17N1qqHDIqSAV-82" style="edgeStyle=orthogonalEdgeStyle;rounded=0;orthogonalLoop=1;jettySize=auto;html=1;entryX=1;entryY=0.5;entryDx=0;entryDy=0;" parent="1" source="AHmGALw17N1qqHDIqSAV-65" target="AHmGALw17N1qqHDIqSAV-51" edge="1">
          <mxGeometry relative="1" as="geometry">
            <mxPoint x="-280" y="220" as="targetPoint" />
          </mxGeometry>
        </mxCell>
        <mxCell id="AHmGALw17N1qqHDIqSAV-65" value="发布成功" style="whiteSpace=wrap;html=1;rounded=0;" parent="1" vertex="1">
          <mxGeometry x="-104.5" y="482" width="120" height="60" as="geometry" />
        </mxCell>
        <mxCell id="AHmGALw17N1qqHDIqSAV-66" value="" style="edgeStyle=orthogonalEdgeStyle;rounded=0;orthogonalLoop=1;jettySize=auto;html=1;entryX=1.024;entryY=0.547;entryDx=0;entryDy=0;entryPerimeter=0;" parent="1" source="AHmGALw17N1qqHDIqSAV-60" target="AHmGALw17N1qqHDIqSAV-65" edge="1">
          <mxGeometry relative="1" as="geometry" />
        </mxCell>
        <mxCell id="AHmGALw17N1qqHDIqSAV-71" style="edgeStyle=orthogonalEdgeStyle;rounded=0;orthogonalLoop=1;jettySize=auto;html=1;entryX=0.996;entryY=0.7;entryDx=0;entryDy=0;entryPerimeter=0;" parent="1" source="AHmGALw17N1qqHDIqSAV-63" target="AHmGALw17N1qqHDIqSAV-70" edge="1">
          <mxGeometry relative="1" as="geometry">
            <mxPoint x="35.5" y="622" as="targetPoint" />
            <Array as="points">
              <mxPoint x="325.5" y="602" />
              <mxPoint x="35.5" y="602" />
              <mxPoint x="35.5" y="624" />
            </Array>
          </mxGeometry>
        </mxCell>
        <mxCell id="AHmGALw17N1qqHDIqSAV-85" style="rounded=0;orthogonalLoop=1;jettySize=auto;html=1;entryX=0.008;entryY=0.533;entryDx=0;entryDy=0;entryPerimeter=0;edgeStyle=orthogonalEdgeStyle;" parent="1" source="AHmGALw17N1qqHDIqSAV-84" target="AHmGALw17N1qqHDIqSAV-81" edge="1">
          <mxGeometry relative="1" as="geometry" />
        </mxCell>
        <mxCell id="AHmGALw17N1qqHDIqSAV-84" value="与卖家联系" style="whiteSpace=wrap;html=1;rounded=0;" parent="1" vertex="1">
          <mxGeometry x="-750" y="610" width="120" height="60" as="geometry" />
        </mxCell>
        <mxCell id="AHmGALw17N1qqHDIqSAV-90" style="edgeStyle=orthogonalEdgeStyle;rounded=0;orthogonalLoop=1;jettySize=auto;html=1;entryX=1;entryY=0.533;entryDx=0;entryDy=0;entryPerimeter=0;" parent="1" source="AHmGALw17N1qqHDIqSAV-87" target="AHmGALw17N1qqHDIqSAV-81" edge="1">
          <mxGeometry relative="1" as="geometry" />
        </mxCell>
        <mxCell id="AHmGALw17N1qqHDIqSAV-114" style="edgeStyle=orthogonalEdgeStyle;rounded=0;orthogonalLoop=1;jettySize=auto;html=1;entryX=0.997;entryY=0.492;entryDx=0;entryDy=0;entryPerimeter=0;" parent="1" source="AHmGALw17N1qqHDIqSAV-110" target="AHmGALw17N1qqHDIqSAV-113" edge="1">
          <mxGeometry relative="1" as="geometry" />
        </mxCell>
        <mxCell id="AHmGALw17N1qqHDIqSAV-115" value="评价" style="whiteSpace=wrap;html=1;rounded=0;" parent="1" vertex="1">
          <mxGeometry x="-100" y="760" width="120" height="60" as="geometry" />
        </mxCell>
        <mxCell id="AHmGALw17N1qqHDIqSAV-116" style="edgeStyle=orthogonalEdgeStyle;rounded=0;orthogonalLoop=1;jettySize=auto;html=1;entryX=0.004;entryY=0.519;entryDx=0;entryDy=0;entryPerimeter=0;" parent="1" source="AHmGALw17N1qqHDIqSAV-110" target="AHmGALw17N1qqHDIqSAV-115" edge="1">
          <mxGeometry relative="1" as="geometry" />
        </mxCell>
        <mxCell id="GOtscX7IOrPYoJZxczDV-12" style="edgeStyle=orthogonalEdgeStyle;rounded=1;sketch=0;orthogonalLoop=1;jettySize=auto;html=1;entryX=0;entryY=0.5;entryDx=0;entryDy=0;" edge="1" parent="1" source="AHmGALw17N1qqHDIqSAV-53" target="AHmGALw17N1qqHDIqSAV-51">
          <mxGeometry relative="1" as="geometry" />
        </mxCell>
      </root>
    </mxGraphModel>
  </diagram>
  <diagram id="qpy2VrTRFg_Y-YUyG-o4" name="第 2 页">
    <mxGraphModel dx="1420" dy="807" grid="1" gridSize="10" guides="1" tooltips="1" connect="1" arrows="1" fold="1" page="1" pageScale="1" pageWidth="1169" pageHeight="827" math="0" shadow="0">
      <root>
        <mxCell id="0" />
        <mxCell id="1" parent="0" />
      </root>
    </mxGraphModel>
  </diagram>
</mxfile>
